<?xml version="1.0" encoding="utf-8"?>
<!-- Generator: Adobe Illustrator 26.0.0, SVG Export Plug-In . SVG Version: 6.00 Build 0)  -->
<svg version="1.1" id="Capa_1" xmlns="http://www.w3.org/2000/svg" xmlns:xlink="http://www.w3.org/1999/xlink" x="0px" y="0px"
	viewBox="0 0 925.5 803" style="enable-background:new 0 0 925.5 803;" xml:space="preserve">
<style type="text/css">
	.st0{fill:#FFFFFF;stroke:#1D1D1B;stroke-miterlimit:10;}
	.st1{fill:#FF9FFA;stroke:#1D1D1B;stroke-miterlimit:10;}
	.st2{fill:#706F6F;stroke:#1D1D1B;stroke-miterlimit:10;}
	.st3{font-family:'Poppins-Medium';}
	.st4{font-size:18px;}
	.st5{font-size:19px;}
	.st6{font-size:16px;}
	.st7{font-size:14px;}
</style>
<rect x="0.5" y="85.5" class="st0" width="157.8" height="39.1"/>
<rect x="264" y="85.5" class="st0" width="563.2" height="39.1"/>
<rect x="0.5" y="0.5" class="st0" width="157.8" height="45.5"/>
<rect x="264" y="0.5" class="st0" width="456.5" height="45.5"/>
<rect x="764.4" y="0.5" class="st0" width="62.8" height="45.5"/>
<rect x="264" y="0.5" class="st0" width="456.5" height="45.5"/>
<rect x="764.4" y="0.5" class="st0" width="62.8" height="45.5"/>
<rect x="0.5" y="85.5" class="st0" width="157.8" height="45.5"/>
<rect x="264" y="85.5" class="st0" width="563.2" height="45.5"/>
<rect x="338" y="85.5" class="st1" width="81.7" height="45.5"/>
<rect x="92.4" y="388.6" class="st1" width="65.9" height="107.8"/>
<rect x="264.4" y="328.3" class="st2" width="32.9" height="107.7"/>
<rect x="92.4" y="495.6" class="st2" width="65.9" height="61"/>
<rect x="264.2" y="669.4" class="st0" width="0.2" height="0.5"/>
<rect x="264.2" y="633.5" class="st0" width="426.2" height="36"/>
<rect x="799.1" y="633.5" class="st0" width="98.6" height="36"/>
<rect x="264.4" y="550.7" class="st0" width="633.8" height="36.5"/>
<rect x="690.4" y="700.4" class="st2" width="108.7" height="80.5"/>
<rect x="201.2" y="762.6" class="st0" width="62.8" height="38.6"/>
<rect x="92.5" y="669.4" class="st0" width="65.8" height="47"/>
<polygon class="st0" points="898.2,587.2 897.7,633.5 799.1,633.5 799.1,700.4 690.4,700.4 690.4,669.4 690.4,669.4 690.4,633.5 
	264.2,633.5 264.2,670 264.4,670 264.4,801.2 103.4,801.2 103.4,801.2 26.5,801.2 26.5,716.4 158.3,716.4 158.3,244.3 158.3,244.3 
	158.3,163.9 158.3,163.9 158.3,85.5 0.5,85.5 0.5,46 158.3,46 158.3,0.5 264,0.5 264,46 677.9,46 677.9,0.5 764.4,0.5 764.4,46 
	827.2,46 827.2,85.5 264,85.5 264,550.7 264.4,550.7 264.4,587.2 "/>
<rect x="264.4" y="550.7" class="st0" width="633.8" height="36.5"/>
<rect x="264.2" y="633.5" class="st0" width="426.2" height="36.5"/>
<rect x="799.1" y="633.5" class="st0" width="98.6" height="36.5"/>
<rect x="803.8" y="550.7" class="st0" width="93.9" height="36.5"/>
<rect x="561.6" y="85.5" class="st0" width="98.6" height="44.8"/>
<text transform="matrix(1 0 0 1 102.37 449.11)" class="st3 st4">SSHH</text>
<text transform="matrix(1 0 0 1 355.9 114.88)" class="st3 st4">SSHH</text>
<rect x="156.9" y="0.5" class="st2" width="107.7" height="45.5"/>
<rect x="676.7" y="0.5" class="st2" width="97.4" height="45.5"/>
<rect x="26.7" y="742.2" class="st0" width="131.5" height="60.3"/>
<rect x="158.2" y="757.4" class="st2" width="105.8" height="45.1"/>
<text transform="matrix(1 0 0 1 45.13 781.89)" class="st3 st5">Decanato</text>
<text transform="matrix(1 0 0 1 363.63 572)" class="st3 st6">Aulas con código 200</text>
<text transform="matrix(1 0 0 1 711.45 524.85)" class="st3 st6">Aulas con </text>
<text transform="matrix(1 0 0 1 706.47 544.05)" class="st3 st6">código 200</text>
<text transform="matrix(1 0 0 1 821.68 686.88)" class="st3 st6">Laboratorio</text>
<text transform="matrix(1 0 0 1 831.79 522.73)" class="st3 st6">Aula </text>
<text transform="matrix(1 0 0 1 821.45 541.93)" class="st3 st6">Magna</text>
<text transform="matrix(1 0 0 1 567.18 153.82)" class="st3 st6">Micro Data </text>
<text transform="matrix(1 0 0 1 583.41 173.02)" class="st3 st6">Center</text>
<text transform="matrix(1 0 0 1 343.81 655.86)" class="st3 st6">Aulas con código 200</text>
<rect x="205" y="455" class="st0" width="58.7" height="75.1"/>
<rect x="625.5" y="488.2" class="st0" width="74.3" height="99.1"/>
<rect x="264.2" y="613.9" class="st0" width="59.1" height="19.8"/>
<text transform="matrix(1 0 0 1 267.81 629)" class="st3 st7">Trofeos</text>
<text transform="matrix(1 0 0 1 638.09 437.98)" class="st3 st6">Tercio </text>
<text transform="matrix(1 0 0 1 620.95 457.18)" class="st3 st6">Estudiantil</text>
<text transform="matrix(1 0 0 1 649.8701 476.38)" class="st3 st6">FISI</text>
<text transform="matrix(1 0 0 1 274.56 489.71)" class="st3 st6">Sala de</text>
<text transform="matrix(1 0 0 1 274.56 508.91)" class="st3 st6">catedráticos</text>
<text transform="matrix(1 0 0 1 415.34 29.47)" class="st3 st6">Laboratorios</text>
<rect x="26.8" y="285.4" class="st0" width="178.2" height="85.8"/>
<rect x="158.3" y="199.7" class="st0" width="46.7" height="85.8"/>
<text transform="matrix(1 0 0 1 77.68 330.6)" class="st3 st6">Comedor</text>
<text transform="matrix(1 0 0 1 34.86 21.88)" class="st3 st7">Aulas Nuevo </text>
<text transform="matrix(1 0 0 1 47.92 38.68)" class="st3 st7">Pabellón</text>
</svg>
