<?xml version="1.0" encoding="utf-8"?>
<!-- Generator: Adobe Illustrator 26.0.0, SVG Export Plug-In . SVG Version: 6.00 Build 0)  -->
<svg version="1.1" id="Capa_1" xmlns="http://www.w3.org/2000/svg" xmlns:xlink="http://www.w3.org/1999/xlink" x="0px" y="0px"
	 viewBox="0 0 935.4 803" style="enable-background:new 0 0 935.4 803;" xml:space="preserve">
<style type="text/css">
	.st0{fill:#FFFFFF;stroke:#1D1D1B;stroke-miterlimit:10;}
	.st1{fill:#FF9FFA;stroke:#1D1D1B;stroke-miterlimit:10;}
	.st2{fill:#706F6F;stroke:#1D1D1B;stroke-miterlimit:10;}
	.st3{font-family:'Poppins-Medium';}
	.st4{font-size:18px;}
	.st5{font-size:17px;}
	.st6{font-size:16px;}
</style>
<rect x="37.2" y="85.5" class="st0" width="157.8" height="39.1"/>
<rect x="300.7" y="85.5" class="st0" width="563.2" height="39.1"/>
<rect x="37.2" y="0.5" class="st0" width="157.8" height="45.5"/>
<rect x="300.7" y="0.5" class="st0" width="456.5" height="45.5"/>
<rect x="801.1" y="0.5" class="st0" width="62.8" height="45.5"/>
<rect x="37.2" y="0.5" class="st0" width="157.8" height="45.5"/>
<rect x="300.7" y="0.5" class="st0" width="456.5" height="45.5"/>
<rect x="801.1" y="0.5" class="st0" width="62.8" height="45.5"/>
<rect x="37.2" y="85.5" class="st0" width="157.8" height="45.5"/>
<rect x="300.7" y="85.5" class="st0" width="563.2" height="45.5"/>
<rect x="374.7" y="85.5" class="st1" width="81.7" height="45.5"/>
<rect x="129.1" y="388.6" class="st1" width="65.9" height="107.8"/>
<rect x="129.1" y="495.6" class="st2" width="65.9" height="32.9"/>
<rect x="129.1" y="556.7" class="st0" width="65.9" height="49.3"/>
<rect x="129.1" y="528.4" class="st0" width="65.9" height="29.2"/>
<rect x="129.1" y="606" class="st0" width="65.9" height="51.5"/>
<rect x="300.9" y="669.4" class="st0" width="0.2" height="0.5"/>
<rect x="300.9" y="633.5" class="st0" width="426.2" height="36"/>
<rect x="835.8" y="633.5" class="st0" width="98.6" height="36"/>
<rect x="727.1" y="700.4" class="st2" width="108.7" height="80.5"/>
<rect x="237.9" y="762.6" class="st0" width="62.8" height="38.6"/>
<rect x="127.4" y="669.4" class="st0" width="67.6" height="47"/>
<polygon class="st0" points="934.9,587.2 934.4,633.5 835.8,633.5 835.8,700.4 727.1,700.4 727.1,633.5 300.9,633.5 300.9,670 
	301.1,670 301.1,762.6 140.1,762.6 140.1,801.2 63.2,801.2 63.2,742.2 12.7,742.2 12.7,716.4 195,716.4 195,244.3 37.2,244.3 
	37.2,163.9 195,163.9 195,85.5 37.2,85.5 37.2,46 195,46 195,0.5 300.7,0.5 300.7,46 714.5,46 714.5,0.5 801.1,0.5 801.1,46 
	863.9,46 863.9,85.5 300.7,85.5 300.7,550.7 301.1,550.7 301.1,587.2 "/>
<rect x="377.6" y="550.7" class="st0" width="557.2" height="36.5"/>
<rect x="300.9" y="633.5" class="st0" width="426.2" height="36.5"/>
<rect x="835.8" y="633.5" class="st0" width="98.6" height="36.5"/>
<rect x="590.7" y="550.7" class="st0" width="94.3" height="36.5"/>
<rect x="685" y="550.7" class="st0" width="78.8" height="36.5"/>
<text transform="matrix(1 0 0 1 139.06 452.15)" class="st3 st4">SSHH</text>
<text transform="matrix(1 0 0 1 393.28 114.88)" class="st3 st4">SSHH</text>
<rect x="193.6" y="0.5" class="st2" width="107.7" height="45.5"/>
<rect x="713.4" y="0.5" class="st2" width="97.4" height="45.5"/>
<rect x="121.2" y="0.5" class="st0" width="73.9" height="45.5"/>
<rect x="195" y="757.4" class="st2" width="105.8" height="45.1"/>
<rect x="12.7" y="716.4" class="st0" width="181.9" height="85.4"/>
<text transform="matrix(1 0 0 1 61.63 757.27)" class="st3 st5">UNAYOE Y </text>
<text transform="matrix(1 0 0 1 60.19 777.67)" class="st3 st5">BIENESTAR</text>
<text transform="matrix(1 0 0 1 127.09 19.55)" class="st3 st6">Aula de </text>
<text transform="matrix(1 0 0 1 127.32 38.75)" class="st3 st6">música</text>
<text transform="matrix(1 0 0 1 455.93 658.99)" class="st3 st6">Laboratorios</text>
<text transform="matrix(1 0 0 1 40.64 551.23)" class="st3 st6">Matricula</text>
<text transform="matrix(1 0 0 1 4.73 583.54)" class="st3 st6">Dir. Escuela de </text>
<text transform="matrix(1 0 0 1 47.67 602.74)" class="st3 st6">Software</text>
<text transform="matrix(1 0 0 1 7.81 629.13)" class="st3 st6">Dir. Escuela de </text>
<text transform="matrix(1 0 0 1 49.07 648.33)" class="st3 st6">Sistemas</text>
<text transform="matrix(1 0 0 1 606.32 573.98)" class="st3 st6">Soporte</text>
<text transform="matrix(1 0 0 1 667.16 498.53)" class="st3 st6">Departamento </text>
<text transform="matrix(1 0 0 1 668.3 517.73)" class="st3 st6">académico de </text>
<text transform="matrix(1 0 0 1 690.64 536.93)" class="st3 st6">sistemas</text>
<text transform="matrix(1 0 0 1 800.78 574.02)" class="st3 st6">Laboratorios</text>
<rect x="378.1" y="550.7" class="st0" width="85.5" height="36.5"/>
<text transform="matrix(1 0 0 1 373.83 538.22)" class="st3 st6">Publicidad</text>
<text transform="matrix(1 0 0 1 562.03 115.55)" class="st3 st6">Laboratorios</text>
</svg>
