<?xml version="1.0" encoding="utf-8"?>
<!-- Generator: Adobe Illustrator 26.0.0, SVG Export Plug-In . SVG Version: 6.00 Build 0)  -->
<svg version="1.1" id="Capa_1" xmlns="http://www.w3.org/2000/svg" xmlns:xlink="http://www.w3.org/1999/xlink" x="0px" y="0px"
	viewBox="0 0 1070.1 854.9" style="enable-background:new 0 0 1070.1 854.9;" xml:space="preserve">
<style type="text/css">
	.st0{fill:#FFFFFF;stroke:#1D1D1B;stroke-miterlimit:10;}
	.st1{fill:#3AAA35;stroke:#1D1D1B;stroke-miterlimit:10;}
	.st2{fill:#FF9FFA;stroke:#1D1D1B;stroke-miterlimit:10;}
	.st3{fill:#706F6F;stroke:#1D1D1B;stroke-miterlimit:10;}
	.st4{fill:#FFFFFF;stroke:#1D1D1B;stroke-width:1.23;stroke-miterlimit:10;}
	.st5{fill:#FFFFFF;stroke:#1D1D1B;stroke-width:1.08;stroke-miterlimit:10;}
	.st6{font-family:'Poppins-Medium';}
	.st7{font-size:15px;}
	.st8{font-size:12px;}
	.st9{font-size:14px;}
	.st10{font-size:11px;}
	.st11{font-size:13px;}
	.st12{font-size:16px;}
	.st13{font-size:17px;}
	.st14{fill:#706F6F;stroke:#1D1D1B;stroke-width:1.17;stroke-miterlimit:10;}
	.st15{fill:#706F6F;stroke:#1D1D1B;stroke-width:1.12;stroke-miterlimit:10;}
	.st16{fill:#FFFFFF;stroke:#1D1D1B;stroke-width:1.25;stroke-miterlimit:10;}
	.st17{fill:#FFFFFF;stroke:#1D1D1B;stroke-width:1.62;stroke-miterlimit:10;}
	.st18{fill:#FFFFFF;stroke:#1D1D1B;stroke-width:1.07;stroke-miterlimit:10;}
	.st19{font-size:25px;}
</style>
<rect x="97.2" y="85.8" class="st0" width="157.8" height="39.1"/>
<rect x="360.6" y="85.8" class="st0" width="563.2" height="39.1"/>
<rect x="97.2" y="0.8" class="st0" width="157.8" height="45.5"/>
<rect x="360.6" y="0.8" class="st0" width="456.5" height="45.5"/>
<rect x="861.1" y="0.8" class="st0" width="62.8" height="45.5"/>
<rect x="704.3" y="154.8" class="st1" width="256.5" height="268.3"/>
<rect x="704.3" y="427.7" class="st0" width="256.5" height="34.1"/>
<rect x="818.5" y="471.9" class="st2" width="161.8" height="30.3"/>
<rect x="97.2" y="0.8" class="st0" width="157.8" height="45.5"/>
<rect x="360.6" y="0.8" class="st0" width="456.5" height="45.5"/>
<rect x="861.1" y="0.8" class="st0" width="62.8" height="45.5"/>
<rect x="97.2" y="85.8" class="st0" width="157.8" height="45.4"/>
<rect x="360.6" y="85.8" class="st0" width="563.2" height="45.4"/>
<rect x="434.7" y="85.8" class="st2" width="81.7" height="45.4"/>
<rect x="189.1" y="388.9" class="st2" width="65.9" height="107.8"/>
<rect x="361" y="328.6" class="st3" width="32.9" height="107.7"/>
<rect x="189.1" y="495.9" class="st3" width="65.9" height="32.9"/>
<rect x="189.1" y="551" class="st0" width="65.9" height="34"/>
<rect x="189.1" y="595.2" class="st0" width="65.9" height="56.6"/>
<rect x="360.9" y="669.8" class="st0" width="0.2" height="0.5"/>
<rect x="360.9" y="633.8" class="st0" width="426.2" height="36"/>
<rect x="895.7" y="633.8" class="st0" width="98.6" height="36"/>
<rect x="361" y="551" class="st0" width="633.8" height="36.5"/>
<rect x="787" y="700.7" class="st0" width="60.3" height="26.6"/>
<rect x="787" y="727.3" class="st0" width="60.3" height="53.9"/>
<rect x="847.3" y="700.7" class="st3" width="41.4" height="80.5"/>
<rect x="72.7" y="742.5" class="st0" width="50.6" height="59"/>
<rect x="72.7" y="716.7" class="st0" width="50.6" height="25.8"/>
<rect x="200.1" y="762.9" class="st0" width="54.9" height="38.6"/>
<rect x="254.9" y="762.9" class="st3" width="42.9" height="38.6"/>
<rect x="155.6" y="669.8" class="st4" width="99.4" height="47"/>
<rect x="72.7" y="633.8" class="st5" width="82.9" height="82.9"/>
<polygon class="st0" points="994.9,587.5 994.4,633.8 895.7,633.8 895.7,781.2 888.7,781.2 888.7,669.8 787,669.8 787,633.8 
	360.9,633.8 360.9,670.3 361,670.3 361,762.9 200.1,762.9 200.1,801.5 123.2,801.5 123.2,716.7 254.9,716.7 254.9,244.6 97.2,244.6 
	97.2,164.2 254.9,164.2 254.9,85.8 97.2,85.8 97.2,46.3 254.9,46.3 254.9,0.8 360.6,0.8 360.6,46.3 774.5,46.3 774.5,0.8 861.1,0.8 
	861.1,46.3 923.9,46.3 923.9,85.8 360.6,85.8 360.6,551 361,551 361,587.5 "/>
<rect x="361" y="551" class="st0" width="633.8" height="36.5"/>
<rect x="360.9" y="633.8" class="st0" width="426.2" height="36.5"/>
<rect x="895.7" y="633.8" class="st0" width="98.6" height="36.5"/>
<text transform="matrix(1 0 0 1 131.22 816.91)" class="st6 st7">Entrada </text>
<text transform="matrix(1 0 0 1 158.74 834.91)" class="st6 st7">1</text>
<text transform="matrix(1 0 0 1 2.64 734.44)" class="st6 st8">Economía</text>
<text transform="matrix(1 0 0 1 98.78 679.63)" class="st6 st9">DGA</text>
<text transform="matrix(1 0 0 1 178.42 698.12)" class="st6 st7">Cerseu</text>
<text transform="matrix(1 0 0 1 196.28 614.35)" class="st6 st10">Dirección </text>
<text transform="matrix(1 0 0 1 192.94 627.55)" class="st6 st10">Escuela de</text>
<text transform="matrix(1 0 0 1 214.19 640.75)" class="st6 st10">CC</text>
<text transform="matrix(1 0 0 1 200.82 572.51)" class="st6 st10">USGOM</text>
<text transform="matrix(1 0 0 1 598.4 573.81)" class="st6 st9">Aulas con código 100</text>
<text transform="matrix(1 0 0 1 500.88 657.21)" class="st6 st9">Aulas con código 100</text>
<text transform="matrix(1 0 0 1 217.58 816.11)" class="st6 st11">Modulo de </text>
<text transform="matrix(1 0 0 1 222.49 831.71)" class="st6 st11">atención </text>
<text transform="matrix(1 0 0 1 224.33 847.31)" class="st6 st11">docente</text>
<text transform="matrix(1 0 0 1 201.6 448.8)" class="st6 st12">SSHH</text>
<text transform="matrix(1 0 0 1 854.56 491.46)" class="st6 st12">Vestidores</text>
<text transform="matrix(1 0 0 1 451.84 114.66)" class="st6 st13">SSHH</text>
<path d="M810.2,283.5h6.1v2.2h-9v-17.6h2.8L810.2,283.5z"/>
<path d="M831.2,269c1.3,0.8,2.4,1.9,3.1,3.2c1.5,2.9,1.5,6.4,0,9.3c-0.7,1.3-1.8,2.5-3.1,3.2c-2.8,1.6-6.1,1.6-8.9,0
	c-1.3-0.8-2.4-1.9-3.1-3.2c-1.5-2.9-1.5-6.4,0-9.3c0.7-1.3,1.8-2.4,3.1-3.2C825,267.5,828.4,267.5,831.2,269z M823.7,271.3
	c-0.9,0.5-1.6,1.3-2.1,2.2c-1,2.1-1,4.6,0,6.8c0.4,0.9,1.2,1.7,2.1,2.2c0.9,0.5,1.9,0.8,3,0.8c1.1,0,2.1-0.2,3-0.8
	c0.9-0.5,1.6-1.3,2-2.2c1-2.1,1-4.6,0-6.8c-0.4-0.9-1.1-1.7-2-2.2c-0.9-0.5-1.9-0.8-3-0.8C825.6,270.5,824.6,270.8,823.7,271.3
	L823.7,271.3z"/>
<path d="M849.3,283.5c-0.4,0.8-1.1,1.4-1.9,1.8c-1,0.5-2,0.7-3.1,0.7c-1.1,0-2.2-0.2-3.2-0.6c-0.9-0.4-1.7-1-2.3-1.8
	c-0.6-0.8-0.9-1.7-1-2.6h3c0.2,1.7,1.6,2.9,3.3,2.8c0.7,0,1.5-0.2,2-0.7c0.5-0.5,0.7-1.1,0.7-1.8c0-0.6-0.2-1.1-0.5-1.6
	c-0.4-0.4-0.8-0.8-1.3-1c-0.5-0.2-1.2-0.5-2.1-0.8c-0.9-0.3-1.8-0.6-2.7-1c-0.7-0.4-1.3-0.9-1.8-1.5c-0.5-0.8-0.8-1.7-0.7-2.6
	c-0.1-1.8,1-3.5,2.7-4.2c0.9-0.4,2-0.6,3-0.6c1.5-0.1,3.1,0.4,4.3,1.3c1,0.8,1.7,2.1,1.8,3.4h-3.1c-0.1-0.7-0.4-1.3-0.9-1.7
	c-0.6-0.5-1.3-0.8-2.1-0.7c-0.7,0-1.4,0.2-1.9,0.6c-0.5,0.4-0.8,1.1-0.7,1.8c0,0.5,0.2,1.1,0.5,1.5c0.3,0.4,0.8,0.7,1.3,0.9
	c0.5,0.2,1.2,0.5,2.1,0.8c0.9,0.3,1.9,0.6,2.7,1.1c0.7,0.4,1.3,0.9,1.8,1.6c0.5,0.8,0.8,1.7,0.7,2.7
	C849.8,281.9,849.7,282.7,849.3,283.5z"/>
<path d="M863.3,281.9h-7.5l-1.3,3.8h-3l6.5-17.4h3.3l6.5,17.4h-3L863.3,281.9z M862.5,279.7l-2.9-8.2l-2.9,8.2H862.5z"/>
<path d="M785.5,313.6c-0.7,1.3-1.8,2.4-3.2,3.1c-1.6,0.8-3.3,1.1-5,1.1h-5.9v-17.6h5.9c1.7,0,3.4,0.3,5,1.1c1.3,0.7,2.4,1.7,3.2,3.1
	C787,307.2,787,310.6,785.5,313.6z M782,313.6c2.3-2.7,2.3-6.6,0-9.2c-1.3-1.2-3.1-1.8-4.9-1.6h-2.8v12.5h2.8
	C778.9,315.3,780.7,314.7,782,313.6L782,313.6z"/>
<path d="M792.3,302.4v5.3h6.5v2.2h-6.5v5.5h7.2v2.3h-10.1v-17.7h10.1v2.3H792.3z"/>
<path d="M805.2,310.9v6.8h-2.8v-17.6h6c1.7-0.1,3.3,0.4,4.6,1.5c1.1,1.1,1.6,2.5,1.5,4c0.1,1.5-0.5,2.9-1.6,3.9
	c-1.3,1-2.9,1.6-4.5,1.4L805.2,310.9z M811.6,305.5c0.1-0.8-0.2-1.7-0.8-2.3c-0.8-0.6-1.7-0.9-2.7-0.8h-2.8v6.1h2.8
	C810.4,308.6,811.6,307.6,811.6,305.5z"/>
<path d="M829.6,301c1.3,0.8,2.4,1.9,3.1,3.2c1.5,2.9,1.5,6.4,0,9.3c-0.7,1.3-1.8,2.5-3.1,3.2c-2.8,1.6-6.1,1.6-8.9,0
	c-1.3-0.8-2.4-1.9-3.1-3.2c-1.5-2.9-1.5-6.4,0-9.3c0.7-1.3,1.8-2.4,3.1-3.2C823.5,299.5,826.8,299.5,829.6,301L829.6,301z
	M822.1,303.3c-0.9,0.5-1.6,1.3-2.1,2.2c-1,2.1-1,4.6,0,6.8c0.5,0.9,1.2,1.7,2.1,2.2c0.9,0.5,1.9,0.8,3,0.8c1.1,0,2.1-0.2,3-0.8
	c0.9-0.5,1.6-1.3,2-2.2c1-2.1,1-4.6,0-6.8c-0.5-0.9-1.2-1.7-2-2.2c-0.9-0.5-1.9-0.8-3-0.8C824.1,302.5,823.1,302.8,822.1,303.3
	L822.1,303.3z"/>
<path d="M846,317.8l-4.4-7h-2v7h-2.8v-17.6h6.2c1.7-0.1,3.3,0.4,4.6,1.5c1.1,1,1.6,2.4,1.6,3.9c0.1,1.2-0.4,2.5-1.2,3.4
	c-0.9,0.9-2.1,1.5-3.4,1.7l4.6,7.2L846,317.8z M839.6,308.7h3.2c2.3,0,3.4-1,3.5-3c0-0.8-0.3-1.7-0.8-2.3c-0.7-0.6-1.7-0.9-2.6-0.8
	h-3.2V308.7z"/>
<path d="M863,300.1v2.3h-4.9v15.3h-2.9v-15.3h-4.9v-2.3H863z"/>
<path d="M868,300.1v17.6h-2.8v-17.6H868z"/>
<path d="M873.2,300.1l5.1,14.6l5.1-14.6h3.1l-6.4,17.6h-3.7l-6.3-17.6H873.2z"/>
<path d="M899.2,313.9h-7.5l-1.3,3.8h-3l6.5-17.4h3.3l6.5,17.4h-3L899.2,313.9z M898.4,311.7l-2.9-8.2l-2.9,8.2H898.4z"/>
<text transform="matrix(1 0 0 1 792.46 719.22)" class="st6 st8">Quiosco</text>
<text transform="matrix(1 0 0 1 722.17 691.97)" class="st6 st7">Entrada </text>
<text transform="matrix(1 0 0 1 747.74 709.97)" class="st6 st7">2</text>
<rect x="253.6" y="0.8" class="st14" width="107.7" height="45.5"/>
<rect x="773.4" y="0.8" class="st15" width="97.4" height="45.5"/>
<rect x="704.3" y="489.8" class="st16" width="73.5" height="61.3"/>
<text transform="matrix(1 0 0 1 716.3 527.72)" class="st6 st9">Capilla</text>
<rect x="361.3" y="0.8" class="st17" width="412.1" height="45.5"/>
<text transform="matrix(1 0 0 1 491.65 27.7)" class="st6 st9">Aulas Nuevo Pabellon</text>
<text transform="matrix(1 0 0 1 132.5 19.39)" class="st6 st9">Aulas Nuevo </text>
<text transform="matrix(1 0 0 1 145.56 36.19)" class="st6 st9">Pabellón</text>
<rect x="97.2" y="285.8" class="st18" width="179.2" height="85.8"/>
<text transform="matrix(1 0 0 1 152.5 334.56)" class="st6 st12">Auditorio</text>
<text transform="matrix(1 0 0 1 531.66 429.63)" class="st6 st19">Patio de </text>
<text transform="matrix(1 0 0 1 548 461.63)" class="st6 st19">la FISI</text>
<text transform="matrix(1 0 0 1 1005.18 609.21)" class="st6 st7">Entrada </text>
<text transform="matrix(1 0 0 1 1030.54 627.21)" class="st6 st7">3</text>
</svg>
